<?xml version="1.0" encoding="UTF-8" standalone="no"?>
<!-- Created with Inkscape (http://www.inkscape.org/) -->

<svg
   xmlns:dc="http://purl.org/dc/elements/1.1/"
   xmlns:cc="http://creativecommons.org/ns#"
   xmlns:rdf="http://www.w3.org/1999/02/22-rdf-syntax-ns#"
   xmlns:svg="http://www.w3.org/2000/svg"
   xmlns="http://www.w3.org/2000/svg"
   xmlns:sodipodi="http://sodipodi.sourceforge.net/DTD/sodipodi-0.dtd"
   xmlns:inkscape="http://www.inkscape.org/namespaces/inkscape"
   width="1024"
   height="512"
   viewBox="0 0 270.93333 135.46667"
   version="1.1"
   id="svg8"
   inkscape:version="0.92.2 (5c3e80d, 2017-08-06)"
   sodipodi:docname="shapes_text_with_geometric_shapes.svg">
  <defs
     id="defs2" />
  <sodipodi:namedview
     id="base"
     pagecolor="#ffffff"
     bordercolor="#666666"
     borderopacity="1.0"
     inkscape:pageopacity="0.0"
     inkscape:pageshadow="2"
     inkscape:zoom="0.35"
     inkscape:cx="475.70462"
     inkscape:cy="-173.11325"
     inkscape:document-units="mm"
     inkscape:current-layer="layer1"
     showgrid="false"
     units="px"
     showguides="true"
     inkscape:guide-bbox="true"
     inkscape:window-width="1366"
     inkscape:window-height="705"
     inkscape:window-x="-8"
     inkscape:window-y="-8"
     inkscape:window-maximized="1" />
  <metadata
     id="metadata5">
    <rdf:RDF>
      <cc:Work
         rdf:about="">
        <dc:format>image/svg+xml</dc:format>
        <dc:type
           rdf:resource="http://purl.org/dc/dcmitype/StillImage" />
        <dc:title></dc:title>
      </cc:Work>
    </rdf:RDF>
  </metadata>
  <g
     inkscape:label="Layer 1"
     inkscape:groupmode="layer"
     id="layer1"
     transform="translate(0,-161.53332)">
    <path
       style="fill:#6699ff;fill-opacity:1;stroke:#3366cc;stroke-width:1.21708333;stroke-miterlimit:4;stroke-dasharray:none;stroke-opacity:1"
       id="path819"
       sodipodi:type="arc"
       sodipodi:cx="38.722858"
       sodipodi:cy="202.18484"
       sodipodi:rx="27.662226"
       sodipodi:ry="27.629129"
       sodipodi:start="1.5707963"
       sodipodi:end="4.712389"
       d="m 38.722859,229.81397 a 27.662226,27.629129 0 0 1 -23.956191,-13.81456 27.662226,27.629129 0 0 1 0,-27.62913 27.662226,27.629129 0 0 1 23.956191,-13.81456 l -10e-7,27.62912 z" />
    <rect
       y="237.80238"
       x="11.139733"
       height="19.961445"
       width="27.583124"
       id="rect825"
       style="fill:#6699ff;fill-opacity:1;stroke:#3366cc;stroke-width:1.20591736;stroke-miterlimit:4;stroke-dasharray:none;stroke-opacity:1" />
    <path
       d="m -42.93233,257.44309 a 27.662226,27.629129 0 0 1 -23.956191,-13.81456 27.662226,27.629129 0 0 1 0,-27.62913 27.662226,27.629129 0 0 1 23.95619,-13.81456 l 0,27.62912 z"
       sodipodi:end="4.712389"
       sodipodi:start="1.5707963"
       sodipodi:ry="27.629129"
       sodipodi:rx="27.662226"
       sodipodi:cy="229.81396"
       sodipodi:cx="-42.932331"
       sodipodi:type="arc"
       id="path835"
       style="fill:#6699ff;fill-opacity:1;stroke:#3366cc;stroke-width:1.21708333;stroke-miterlimit:4;stroke-dasharray:none;stroke-opacity:1"
       transform="scale(-1,1)" />
    <rect
       style="fill:#6699ff;fill-opacity:1;stroke:#3366cc;stroke-width:1.20591736;stroke-miterlimit:4;stroke-dasharray:none;stroke-opacity:1"
       id="rect843"
       width="27.583124"
       height="19.961445"
       x="43.003819"
       y="174.62779" />
    <rect
       style="fill:#6699ff;fill-opacity:1;stroke:#3366cc;stroke-width:1.20591736;stroke-miterlimit:4;stroke-dasharray:none;stroke-opacity:1"
       id="rect845"
       width="65.641281"
       height="14.032268"
       x="191.96584"
       y="-91.433105"
       transform="rotate(90)" />
    <path
       style="fill:#6699ff;fill-opacity:1;stroke:#3366cc;stroke-width:1.21708333;stroke-miterlimit:4;stroke-dasharray:none;stroke-opacity:1"
       id="path847"
       sodipodi:type="arc"
       sodipodi:cx="-95.221603"
       sodipodi:cy="-238.89745"
       sodipodi:rx="19.994978"
       sodipodi:ry="19.971056"
       sodipodi:start="1.5707963"
       sodipodi:end="3.1415927"
       d="m -95.221603,-218.92639 a 19.994978,19.971056 0 0 1 -14.138587,-5.84939 19.994978,19.971056 0 0 1 -5.85639,-14.12167 l 19.994977,0 z"
       transform="scale(-1)" />
    <rect
       transform="rotate(90)"
       y="-115.06627"
       x="242.49998"
       height="19.985355"
       width="15.107144"
       id="rect849"
       style="fill:#6699ff;fill-opacity:1;stroke:#3366cc;stroke-width:1.20591748;stroke-miterlimit:4;stroke-dasharray:none;stroke-opacity:1" />
    <path
       d="m 138.0985,257.60713 a 17.930254,18.073132 0 0 1 -15.52806,-9.03657 17.930254,18.073132 0 0 1 0,-18.07313 17.930254,18.073132 0 0 1 15.52806,-9.03656 l 0,18.07313 z"
       sodipodi:end="4.712389"
       sodipodi:start="1.5707963"
       sodipodi:ry="18.073132"
       sodipodi:rx="17.930254"
       sodipodi:cy="239.534"
       sodipodi:cx="138.0985"
       sodipodi:type="arc"
       id="path851"
       style="fill:#6699ff;fill-opacity:1;stroke:#3366cc;stroke-width:1.21708333;stroke-miterlimit:4;stroke-dasharray:none;stroke-opacity:1" />
    <rect
       transform="rotate(90)"
       y="-151.45869"
       x="221.37715"
       height="9.3548412"
       width="36.229988"
       id="rect853"
       style="fill:#6699ff;fill-opacity:1;stroke:#3366cc;stroke-width:1.20591736;stroke-miterlimit:4;stroke-dasharray:none;stroke-opacity:1" />
    <rect
       transform="rotate(90)"
       y="-170.00456"
       x="221.39687"
       height="11.480945"
       width="65.641281"
       id="rect855"
       style="fill:#6699ff;fill-opacity:1;stroke:#3366cc;stroke-width:1.20591736;stroke-miterlimit:4;stroke-dasharray:none;stroke-opacity:1" />
    <path
       style="fill:#6699ff;fill-opacity:1;stroke:#3366cc;stroke-width:1.21708333;stroke-miterlimit:4;stroke-dasharray:none;stroke-opacity:1"
       id="path857"
       sodipodi:type="arc"
       sodipodi:cx="-173.86913"
       sodipodi:cy="239.60905"
       sodipodi:rx="17.930254"
       sodipodi:ry="18.073132"
       sodipodi:start="1.5707963"
       sodipodi:end="4.712389"
       d="m -173.86912,257.68219 a 17.930254,18.073132 0 0 1 -15.52806,-9.03657 17.930254,18.073132 0 0 1 0,-18.07313 17.930254,18.073132 0 0 1 15.52805,-9.03657 l 0,18.07313 z"
       transform="scale(-1,1)" />
    <path
       transform="matrix(0,1,1,0,0,0)"
       d="m 238.20604,228.25094 a 16.26174,16.473631 0 0 1 -14.08308,-8.23681 16.26174,16.473631 0 0 1 0,-16.47363 16.26174,16.473631 0 0 1 14.08308,-8.23682 l 0,16.47363 z"
       sodipodi:end="4.712389"
       sodipodi:start="1.5707963"
       sodipodi:ry="16.473631"
       sodipodi:rx="16.26174"
       sodipodi:cy="211.77731"
       sodipodi:cx="238.20604"
       sodipodi:type="arc"
       id="path859"
       style="fill:#6699ff;fill-opacity:1;stroke:#3366cc;stroke-width:1.21708333;stroke-miterlimit:4;stroke-dasharray:none;stroke-opacity:1" />
    <path
       style="fill:#6699ff;fill-opacity:1;stroke:#3366cc;stroke-width:1.21708333;stroke-miterlimit:4;stroke-dasharray:none;stroke-opacity:1"
       id="path863"
       sodipodi:type="arc"
       sodipodi:cx="-240.80017"
       sodipodi:cy="-212.18022"
       sodipodi:rx="16.422312"
       sodipodi:ry="16.593554"
       sodipodi:start="1.5707963"
       sodipodi:end="3.1415927"
       d="m -240.80017,-195.58667 a 16.422312,16.593554 0 0 1 -11.61233,-4.86014 16.422312,16.593554 0 0 1 -4.80998,-11.73341 l 16.42231,0 z"
       transform="matrix(0,-1,-1,0,0,0)" />
    <path
       d="m 244.42561,245.43384 a 12.203104,12.188504 0 0 1 -10.56819,-6.09426 12.203104,12.188504 0 0 1 0,-12.1885 12.203104,12.188504 0 0 1 10.56819,-6.09425 l 0,12.1885 z"
       sodipodi:end="4.712389"
       sodipodi:start="1.5707963"
       sodipodi:ry="12.188504"
       sodipodi:rx="12.203104"
       sodipodi:cy="233.24533"
       sodipodi:cx="244.42561"
       sodipodi:type="arc"
       id="path865"
       style="fill:#6699ff;fill-opacity:1;stroke:#3366cc;stroke-width:1.21708333;stroke-miterlimit:4;stroke-dasharray:none;stroke-opacity:1" />
    <rect
       style="fill:#6699ff;fill-opacity:1;stroke:#3366cc;stroke-width:1.20591736;stroke-miterlimit:4;stroke-dasharray:none;stroke-opacity:1"
       id="rect867"
       width="12.168208"
       height="8.8059292"
       x="232.2574"
       y="248.9579" />
    <path
       transform="scale(-1,1)"
       style="fill:#6699ff;fill-opacity:1;stroke:#3366cc;stroke-width:1.21708333;stroke-miterlimit:4;stroke-dasharray:none;stroke-opacity:1"
       id="path869"
       sodipodi:type="arc"
       sodipodi:cx="-246.28262"
       sodipodi:cy="245.43384"
       sodipodi:rx="12.203104"
       sodipodi:ry="12.188504"
       sodipodi:start="1.5707963"
       sodipodi:end="4.712389"
       d="m -246.28262,257.62234 a 12.203104,12.188504 0 0 1 -10.5682,-6.09425 12.203104,12.188504 0 0 1 0,-12.1885 12.203104,12.188504 0 0 1 10.5682,-6.09426 l 0,12.18851 z" />
    <rect
       y="221.08862"
       x="246.31413"
       height="8.8059292"
       width="12.168208"
       id="rect871"
       style="fill:#6699ff;fill-opacity:1;stroke:#3366cc;stroke-width:1.20591736;stroke-miterlimit:4;stroke-dasharray:none;stroke-opacity:1" />
  </g>
</svg>
